<svg width="1280" height="640" viewBox="0 0 1280 640" fill="none" xmlns="http://www.w3.org/2000/svg">
<rect width="1280" height="640" fill="url(#paint0_linear_5_21)"/>
<path d="M366.484 396H349.834V291.3H388.984C398.984 291.3 406.584 294.1 411.784 299.7C417.084 305.3 419.734 313 419.734 322.8C419.734 330.8 417.784 337.4 413.884 342.6C409.984 347.8 404.384 351 397.084 352.2L421.234 396H402.634L380.434 353.7H366.484V396ZM386.584 340.2C396.984 340.2 402.184 335.45 402.184 325.95V319.5C402.184 310 396.984 305.25 386.584 305.25H366.484V340.2H386.584ZM500.976 396C496.276 396 492.726 394.8 490.326 392.4C488.026 390 486.626 386.85 486.126 382.95H485.376C483.876 387.65 481.126 391.3 477.126 393.9C473.226 396.5 468.226 397.8 462.126 397.8C454.226 397.8 447.926 395.75 443.226 391.65C438.526 387.45 436.176 381.7 436.176 374.4C436.176 366.9 438.926 361.2 444.426 357.3C450.026 353.3 458.576 351.3 470.076 351.3H484.926V345.3C484.926 334.8 479.376 329.55 468.276 329.55C463.276 329.55 459.226 330.55 456.126 332.55C453.026 334.45 450.426 337 448.326 340.2L438.576 332.25C440.776 328.05 444.476 324.45 449.676 321.45C454.876 318.35 461.576 316.8 469.776 316.8C479.576 316.8 487.276 319.15 492.876 323.85C498.476 328.55 501.276 335.35 501.276 344.25V383.1H511.026V396H500.976ZM466.776 385.8C472.076 385.8 476.426 384.6 479.826 382.2C483.226 379.8 484.926 376.7 484.926 372.9V361.65H470.376C458.576 361.65 452.676 365.2 452.676 372.3V375.3C452.676 378.8 453.926 381.45 456.426 383.25C458.926 384.95 462.376 385.8 466.776 385.8ZM578.917 382.8H578.017C575.717 387.5 572.667 391.2 568.867 393.9C565.067 396.5 560.317 397.8 554.617 397.8C545.517 397.8 538.267 394.4 532.867 387.6C527.467 380.8 524.767 370.7 524.767 357.3C524.767 343.9 527.467 333.8 532.867 327C538.267 320.2 545.517 316.8 554.617 316.8C560.317 316.8 565.067 318.15 568.867 320.85C572.667 323.45 575.717 327.1 578.017 331.8H578.917V285H595.267V396H578.917V382.8ZM561.367 384.45C563.767 384.45 566.017 384.15 568.117 383.55C570.217 382.95 572.067 382.05 573.667 380.85C575.267 379.65 576.517 378.2 577.417 376.5C578.417 374.7 578.917 372.6 578.917 370.2V344.4C578.917 342 578.417 339.95 577.417 338.25C576.517 336.45 575.267 334.95 573.667 333.75C572.067 332.55 570.217 331.65 568.117 331.05C566.017 330.45 563.767 330.15 561.367 330.15C555.167 330.15 550.367 332.05 546.967 335.85C543.667 339.65 542.017 344.7 542.017 351V363.6C542.017 369.9 543.667 374.95 546.967 378.75C550.367 382.55 555.167 384.45 561.367 384.45ZM656.859 304.5C652.659 304.5 649.709 303.65 648.009 301.95C646.409 300.25 645.609 298.15 645.609 295.65V292.5C645.609 290 646.409 287.9 648.009 286.2C649.709 284.5 652.609 283.65 656.709 283.65C660.909 283.65 663.809 284.5 665.409 286.2C667.109 287.9 667.959 290 667.959 292.5V295.65C667.959 298.15 667.109 300.25 665.409 301.95C663.809 303.65 660.959 304.5 656.859 304.5ZM622.209 382.8H648.609V331.8H622.209V318.6H664.959V382.8H689.709V396H622.209V382.8ZM703.75 396L732.55 356.7L704.95 318.6H724L734.2 333.3L742.3 345H743.2L751.15 333.3L761.35 318.6H779.05L751.3 356.1L780.4 396H761.2L749.65 379.35L741.7 367.95H740.8L733 379.35L721.6 396H703.75ZM803.141 396V291.3H819.941V381.9H867.641V396H803.141ZM926.683 304.5C922.483 304.5 919.533 303.65 917.833 301.95C916.233 300.25 915.433 298.15 915.433 295.65V292.5C915.433 290 916.233 287.9 917.833 286.2C919.533 284.5 922.433 283.65 926.533 283.65C930.733 283.65 933.633 284.5 935.233 286.2C936.933 287.9 937.783 290 937.783 292.5V295.65C937.783 298.15 936.933 300.25 935.233 301.95C933.633 303.65 930.783 304.5 926.683 304.5ZM892.033 382.8H918.433V331.8H892.033V318.6H934.783V382.8H959.533V396H892.033V382.8ZM978.674 285H995.024V331.8H995.924C998.224 327.1 1001.27 323.45 1005.07 320.85C1008.87 318.15 1013.62 316.8 1019.32 316.8C1028.42 316.8 1035.67 320.2 1041.07 327C1046.47 333.8 1049.17 343.9 1049.17 357.3C1049.17 370.7 1046.47 380.8 1041.07 387.6C1035.67 394.4 1028.42 397.8 1019.32 397.8C1013.62 397.8 1008.87 396.5 1005.07 393.9C1001.27 391.2 998.224 387.5 995.924 382.8H995.024V396H978.674V285ZM1012.57 384.45C1018.77 384.45 1023.52 382.55 1026.82 378.75C1030.22 374.95 1031.92 369.9 1031.92 363.6V351C1031.92 344.7 1030.22 339.65 1026.82 335.85C1023.52 332.05 1018.77 330.15 1012.57 330.15C1010.17 330.15 1007.92 330.45 1005.82 331.05C1003.72 331.65 1001.87 332.55 1000.27 333.75C998.674 334.95 997.374 336.45 996.374 338.25C995.474 339.95 995.024 342 995.024 344.4V370.2C995.024 372.6 995.474 374.7 996.374 376.5C997.374 378.2 998.674 379.65 1000.27 380.85C1001.87 382.05 1003.72 382.95 1005.82 383.55C1007.92 384.15 1010.17 384.45 1012.57 384.45Z" fill="white"/>
<path d="M285.275 367C282.619 367 280.1 365.729 278.525 363.547L245.52 317.819H224V301.165H249.78C252.454 301.165 254.966 302.45 256.532 304.619L283.496 341.977L324.647 247.987C325.974 244.957 328.967 243 332.275 243H383.707V259.653H337.72L292.904 362.013C291.706 364.751 289.131 366.637 286.16 366.953C285.864 366.985 285.568 367 285.275 367Z" fill="#3EBA75"/>
<rect x="383" y="243" width="394" height="16.65" fill="#3EBA75"/>
<defs>
<linearGradient id="paint0_linear_5_21" x1="1280" y1="0.000110379" x2="-74.8621" y2="351.18" gradientUnits="userSpaceOnUse">
<stop stop-color="#003057"/>
<stop offset="1" stop-color="#00172B"/>
</linearGradient>
</defs>
</svg>
